<svg width="30" height="30" viewBox="0 0 30 30" fill="none" xmlns="http://www.w3.org/2000/svg">
<path d="M14.9738 0C23.2779 0 29.9825 6.67831 30 14.965C30.0174 23.2692 23.2954 30 14.9738 30C6.66957 30 0 23.2779 0 14.9213C0 6.71328 6.7395 0 14.9738 0ZM14.965 27.9021C22.0804 27.937 27.9283 22.1416 27.9021 14.9825C27.8671 7.80593 22.0629 2.04545 14.9301 2.0979C7.76223 2.14161 2.05419 7.93705 2.0979 15.1224C2.13286 22.1678 7.96328 27.9545 14.965 27.9021Z" fill="#0A66AA"/>
<path d="M13.5664 16.9755C14.7115 15.7168 15.8217 14.493 16.9405 13.2692C17.8758 12.2378 18.8199 11.1975 19.7552 10.1748C20.1049 9.79021 20.5332 9.67657 20.9615 9.84265C21.6433 10.0961 21.8531 10.9528 21.3461 11.521C20.6556 12.3077 19.9475 13.0769 19.2395 13.8461C17.6748 15.5682 16.1189 17.2815 14.5542 19.0035C13.8986 19.7203 13.3566 19.729 12.6661 19.0384C11.3636 17.736 10.0612 16.4336 8.75872 15.1311C8.44404 14.8164 8.30418 14.4668 8.40907 14.0385C8.59264 13.278 9.53669 13.007 10.1311 13.5489C10.5245 13.9073 10.8916 14.3007 11.2675 14.6766C12.0279 15.4371 12.7797 16.1888 13.5664 16.9755Z" fill="#0A66AA"/>
</svg>
